# xmcd CD database file
#
# Track frame offsets:
#	150
#	20646
#	25105
#	52452
#	68292
#	90774
#	114567
#	132964
#	149094
#	167304
#	187101
#	207292
#
# Disc length: 3206 seconds
#
# Revision: 1
# Processed by: cddbd v1.5.2PL0 Copyright (c) Steve Scherf et al.
# Submitted via: CDex 1.51
#
DISCID=a50c840c
DTITLE=Avishai Cohen - Aurora
DYEAR=2008
DGENRE=Jazz
TTITLE0=Morenika
TTITLE1=Interlude in C# minor
TTITLE2=El Hatzipor
TTITLE3=Leolam
TTITLE4=Winter song
TTITLE5=It's been so long
TTITLE6=Alon Basela
TTITLE7=Still
TTITLE8=Shir Preda
TTITLE9=Aurora
TTITLE10=Alfonsina Y El Mar
TTITLE11=Noches Noches - La Luz
EXTD=YEAR: 2008
EXTT0=
EXTT1=
EXTT2=
EXTT3=
EXTT4=
EXTT5=
EXTT6=
EXTT7=
EXTT8=
EXTT9=
EXTT10=
EXTT11=
PLAYORDER=
